<svg width="33" height="33" viewBox="0 0 33 33" fill="none" xmlns="http://www.w3.org/2000/svg">
<path d="M7.58238 9.03226C7.17871 9.60739 7.17871 11.3169 7.17871 14.736V16.4198C7.17871 22.4484 11.7113 25.374 14.5551 26.6163C15.3266 26.9533 15.7123 27.1218 16.8022 27.1218C17.892 27.1218 18.2777 26.9533 19.0492 26.6163C21.893 25.374 26.4256 22.4484 26.4256 16.4198V14.736C26.4256 11.3169 26.4256 9.60739 26.0219 9.03226C25.6183 8.45713 24.0108 7.9069 20.796 6.80645L20.1835 6.59679C18.5077 6.02315 17.6697 5.73633 16.8022 5.73633C15.9346 5.73633 15.0966 6.02315 13.4208 6.59679L12.8083 6.80645C9.59347 7.9069 7.98604 8.45713 7.58238 9.03226Z" fill="#369FFF"/>
<path d="M15.5849 12.5408L15.4447 12.7922C15.2908 13.0684 15.2138 13.2065 15.0938 13.2976C14.9737 13.3887 14.8243 13.4225 14.5253 13.4902L14.2531 13.5518C13.2011 13.7898 12.6751 13.9088 12.5499 14.3112C12.4248 14.7137 12.7834 15.133 13.5006 15.9717L13.6862 16.1887L13.6862 16.1887C13.89 16.427 13.9919 16.5461 14.0377 16.6936C14.0836 16.841 14.0681 17 14.0373 17.318L14.0093 17.6074C13.9008 18.7264 13.8466 19.2859 14.1743 19.5346C14.5019 19.7833 14.9944 19.5566 15.9794 19.1031L15.9794 19.103L16.2343 18.9857L16.2343 18.9857C16.5142 18.8568 16.6541 18.7924 16.8025 18.7924C16.9508 18.7924 17.0908 18.8568 17.3707 18.9857L17.6255 19.103C18.6105 19.5566 19.103 19.7833 19.4307 19.5346C19.7583 19.2859 19.7041 18.7264 19.5957 17.6075L19.5676 17.318L19.5676 17.3179C19.5368 17 19.5214 16.841 19.5672 16.6936C19.6131 16.5461 19.715 16.427 19.9188 16.1887L20.1043 15.9717C20.8215 15.133 21.1802 14.7137 21.055 14.3112C20.9299 13.9088 20.4038 13.7898 19.3518 13.5518L19.0796 13.4902C18.7807 13.4225 18.6312 13.3887 18.5112 13.2976C18.3912 13.2065 18.3142 13.0684 18.1603 12.7922L18.1603 12.7922L18.0201 12.5408L18.0201 12.5408C17.4783 11.5689 17.2075 11.083 16.8025 11.083C16.3975 11.083 16.1266 11.5689 15.5849 12.5408L15.5849 12.5408Z" fill="white"/>
</svg>
