<svg width="164" height="313" viewBox="0 0 164 313" fill="none" xmlns="http://www.w3.org/2000/svg">
<path d="M-218.552 234.308C-213.604 268.526 -187.819 312.665 -152.811 297.909C-126.35 286.756 -156.973 258.65 -126.214 234.529C-95.4559 210.408 -50.2951 208.348 -23.9835 234.895C-4.60811 254.443 -28.584 280.366 -12.4571 302.257C24.6116 352.576 159.685 316.989 154.616 255.81C151.257 215.258 96.5558 218.637 73.5939 184.319C45.6949 142.622 80.1279 95.0798 40.7694 62.0339C11.0046 37.043 -21.9557 14.5313 -58.5629 32.8076C-106.105 56.5433 6.88521 126.929 -37.6057 155.285C-58.2754 168.458 -75.6402 165.16 -100.49 166.045C-130.867 167.127 -149.085 144.48 -177.087 156.04C-211.026 170.051 -223.331 201.248 -218.552 234.308Z" fill="#7E88FF" fill-opacity="0.9"/>
<path d="M-262.968 214.347C-263.874 242.157 -245.675 280.662 -208.212 273.71C-179.895 268.455 -205.661 242.009 -170.84 227.053C-136.019 212.097 -90.5901 216.592 -68.8614 241.217C-52.8608 259.35 -81.2195 276.655 -68.8614 296.205C-40.4556 341.142 100.444 331.249 105.834 282.041C109.407 249.424 54.2306 244.681 37.1728 214.347C16.4472 177.492 58.936 144.46 25.2946 112.91C-0.146606 89.0509 -29.2008 66.7242 -68.8614 76.2511C-120.369 88.6238 -19.6103 159.78 -68.8614 176.23C-91.7427 183.873 -108.512 178.901 -133.467 176.23C-163.972 172.966 -178.289 152.533 -208.212 157.901C-244.481 164.407 -262.092 187.479 -262.968 214.347Z" fill="#AAC2FE" fill-opacity="0.91"/>
</svg>
