<svg width="69" height="53" viewBox="0 0 69 53" fill="none" xmlns="http://www.w3.org/2000/svg">
<g opacity="0.41">
<path d="M34.2853 17.6001C34.2853 14.9328 33.0812 12.3747 30.9379 10.4886C28.7947 8.60256 25.8878 7.54297 22.8567 7.54297H5.71387V45.2572H25.7139C27.9872 45.2572 30.1673 46.0519 31.7748 47.4665C33.3822 48.8811 34.2853 50.7996 34.2853 52.8001M34.2853 17.6001V52.8001M34.2853 17.6001C34.2853 14.9328 35.4894 12.3747 37.6326 10.4886C39.7759 8.60256 42.6828 7.54297 45.7139 7.54297H62.8567V45.2572H42.8567C40.5834 45.2572 38.4033 46.0519 36.7958 47.4665C35.1884 48.8811 34.2853 50.7996 34.2853 52.8001" stroke="#4A62DD" stroke-opacity="0.85" stroke-width="4" stroke-linecap="round" stroke-linejoin="round"/>
</g>
</svg>
