<svg width="70" height="70" viewBox="0 0 70 70" fill="none" xmlns="http://www.w3.org/2000/svg">
<path d="M6.84217 32.8123C6.19536 30.9446 5.85458 28.9846 5.83301 27.0082C5.83301 9.77067 21.8747 1.93359 34.9997 16.0415C48.1247 1.93359 64.1663 9.76775 64.1663 27.0082C64.1443 28.9846 63.8035 30.9445 63.1572 32.8123H54.028C52.4355 32.8123 51.0238 32.8065 49.7376 33.3811C48.4513 33.9528 47.5063 35.0057 46.4418 36.1898L46.223 36.4348L43.2218 39.7686C43.0001 40.0165 42.8163 40.2207 42.6559 40.3928C42.4743 40.1794 42.2944 39.9645 42.1163 39.7482L31.7622 27.1919C31.3538 26.6961 30.9193 26.1711 30.4934 25.7773C29.8866 25.1793 29.0882 24.8147 28.2388 24.7478C27.3873 24.7124 26.5506 24.9789 25.8763 25.5003C25.4097 25.8386 24.9138 26.3111 24.4472 26.7544L19.9847 31.0011C18.6109 32.3136 18.3222 32.5353 18.0247 32.6548C17.7243 32.7773 17.3597 32.8123 15.4609 32.8123H6.84217Z" fill="#FFECCC"/>
<path d="M8.76172 37.1877C12.7896 44.6602 20.2126 51.666 26.1392 56.496C30.0242 59.6693 31.9667 61.2502 35.0001 61.2502C38.0334 61.2502 39.9759 59.6664 43.8609 56.496C49.7876 51.666 57.2105 44.6602 61.2384 37.1877H54.3551C52.2434 37.1877 51.8438 37.2314 51.5171 37.3773C51.1905 37.5231 50.8901 37.7914 49.4755 39.3606L46.4013 42.7789C45.9615 43.2921 45.4879 43.7754 44.9838 44.2256C44.4442 44.6777 43.6421 45.1881 42.5542 45.1618C41.4663 45.1385 40.6846 44.596 40.1626 44.1206C39.6798 43.6502 39.2287 43.1484 38.8121 42.6185L28.4521 30.0593L27.9534 29.4614C27.793 29.6073 27.6092 29.7823 27.3876 29.9952L22.788 34.3731C21.7496 35.3648 20.8309 36.2456 19.6467 36.7181C18.4626 37.1935 17.188 37.1906 15.753 37.1877H8.76172Z" fill="#FFECCC"/>
</svg>
