<svg width="177" height="231" viewBox="0 0 177 231" fill="none" xmlns="http://www.w3.org/2000/svg">
<rect x="0.0974121" y="0.37793" width="176.903" height="230.037" rx="10" fill="#FA6E5A"/>
<path d="M31.0518 154.743V156.501H16.4619V154.743H31.0518ZM23.7393 157.397C27.2021 157.397 29.2939 158.452 29.3115 160.333C29.2939 162.214 27.2021 163.269 23.7393 163.269C20.2236 163.269 18.1318 162.214 18.1318 160.333C18.1318 158.452 20.2236 157.397 23.7393 157.397ZM23.7393 159.085C21.5244 159.085 20.3994 159.489 20.417 160.333C20.3994 161.159 21.5244 161.563 23.7393 161.563C25.9014 161.563 27.0439 161.159 27.0615 160.333C27.0439 159.489 25.9014 159.085 23.7393 159.085ZM23.7568 147.589C27.2725 147.606 29.5576 148.802 29.5752 150.735C29.5576 152.687 27.2725 153.864 23.7568 153.864C20.2236 153.864 17.9209 152.687 17.9209 150.735C17.9209 148.802 20.2236 147.606 23.7568 147.589ZM23.7568 149.347C21.5244 149.347 20.2412 149.786 20.2588 150.735C20.2412 151.667 21.5244 152.124 23.7568 152.124C25.9717 152.124 27.2549 151.667 27.2549 150.735C27.2549 149.786 25.9717 149.347 23.7568 149.347ZM35.9736 156.36V158.065H42.6357V156.36H44.8506V163.075H33.7764V156.36H35.9736ZM35.9736 161.265H42.6357V159.771H35.9736V161.265ZM44.9209 147.905V149.188C44.9209 150.401 44.9209 151.702 44.5518 153.513H46.6611V155.306H32.0186V153.513H42.3193C42.6357 151.966 42.6797 150.762 42.6885 149.698H33.8115V147.905H44.9209ZM65.2061 147.272V158.962H62.9736V155.165H59.3174C58.5439 155.982 57.4277 156.483 56.1885 156.483C53.7627 156.483 51.917 154.726 51.9346 152.353C51.917 149.944 53.7627 148.204 56.1885 148.187C57.4277 148.195 58.5352 148.688 59.3174 149.505H62.9736V147.272H65.2061ZM65.5928 161.177V162.97H54.5889V157.784H56.8389V161.177H65.5928ZM56.1885 150.19C54.9404 150.19 54.0439 150.999 54.0615 152.353C54.0439 153.688 54.9404 154.497 56.1885 154.497C57.3662 154.497 58.2803 153.688 58.2803 152.353C58.2803 150.999 57.3662 150.19 56.1885 150.19ZM60.2842 151.298C60.3633 151.632 60.4072 151.983 60.4072 152.353C60.4072 152.704 60.3633 153.047 60.2842 153.372H62.9736V151.298H60.2842ZM75.1904 148.151V153.056H70.0928V154.585C72.7383 154.567 74.5312 154.479 76.5615 154.11L76.8076 155.903C74.5049 156.308 72.4482 156.413 69.2139 156.413H67.8604V151.351H73.0107V149.944H67.8428V148.151H75.1904ZM79.9717 147.272V151.087H82.1338V152.933H79.9717V156.976H77.7217V147.272H79.9717ZM79.9717 157.714V163.233H77.7217V159.507H69.1963V157.714H79.9717ZM90.9932 148.415V155.552H83.3115V148.415H90.9932ZM85.5264 150.19V153.759H88.7783V150.19H85.5264ZM95.5283 147.255V150.876H97.6904V152.687H95.5283V156.536H93.2783V147.255H95.5283ZM90.29 156.94C93.5771 156.94 95.6865 158.136 95.6865 160.104C95.6865 162.091 93.5771 163.269 90.29 163.269C86.9326 163.269 84.8057 162.091 84.8057 160.104C84.8057 158.136 86.9326 156.94 90.29 156.94ZM90.29 158.716C88.1807 158.716 87.0381 159.19 87.0557 160.104C87.0381 161.054 88.1807 161.493 90.29 161.493C92.3643 161.493 93.4717 161.054 93.4717 160.104C93.4717 159.19 92.3643 158.716 90.29 158.716Z" fill="#FEF9F3"/>
<g clip-path="url(#clip0_4016_7866)">
<path opacity="0.5" d="M150.462 75.9438C150.226 72.7612 149.535 69.6556 148.429 66.8044C147.322 63.9532 145.822 61.4124 144.013 59.3269C142.204 57.2415 140.122 55.6524 137.886 54.6505C135.65 53.6485 133.303 53.2532 130.981 53.4873L126.163 53.9715L125.673 47.3681C125.196 40.941 122.876 34.9644 119.223 30.753C115.57 26.5416 110.882 24.4404 106.192 24.9116C101.503 25.3828 97.1941 28.3879 94.2148 33.2657C91.2355 38.1435 89.8295 44.4946 90.3061 50.9216L94.3899 105.992L134.575 101.954C136.898 101.721 139.151 100.864 141.206 99.4307C143.262 97.9975 145.079 96.0167 146.554 93.6013C148.03 91.1858 149.134 88.3832 149.804 85.3535C150.475 82.3238 150.698 79.1263 150.462 75.9438Z" stroke="#C00F0C" stroke-width="4" stroke-linecap="round" stroke-linejoin="round"/>
</g>
<defs>
<clipPath id="clip0_4016_7866">
<rect width="91.7073" height="94.019" fill="white" transform="matrix(0.655279 0.755387 -0.521243 0.853408 107.693 0.37793)"/>
</clipPath>
</defs>
</svg>
