<svg width="177" height="290" viewBox="0 0 177 290" fill="none" xmlns="http://www.w3.org/2000/svg">
<rect width="176.903" height="289.268" rx="10" fill="#FFCF86"/>
<path d="M29.749 237.168V253.164H27.5869V245.166H26.0928V252.391H23.9834V237.432H26.0928V243.355H27.5869V237.168H29.749ZM18.8506 238.943V247.293C20.1338 247.267 21.54 247.152 23.0869 246.854L23.3154 248.787C21.1709 249.156 19.3428 249.262 17.6904 249.262H16.6006V238.943H18.8506ZM49.1377 237.168V246.66H46.9053V242.881H44.4092V241.07H46.9053V237.168H49.1377ZM43.6709 247.012C47.0811 247.029 49.1729 248.154 49.1904 250.105C49.1729 252.039 47.0811 253.182 43.6709 253.182C40.2607 253.182 38.1689 252.039 38.1689 250.105C38.1689 248.154 40.2607 247.029 43.6709 247.012ZM43.6709 248.734C41.5439 248.734 40.4014 249.174 40.4014 250.105C40.4014 251.02 41.5439 251.477 43.6709 251.477C45.7979 251.477 46.958 251.02 46.958 250.105C46.958 249.174 45.7979 248.734 43.6709 248.734ZM44.8838 238.135V239.928H41.7021C41.7549 241.791 42.8799 243.672 45.376 244.498L44.2686 246.256C42.502 245.685 41.2891 244.524 40.5947 243.074C39.8828 244.709 38.6084 246.027 36.71 246.678L35.5498 244.902C38.1777 244.023 39.3555 241.932 39.417 239.928H36.2002V238.135H44.8838ZM65.8545 249.473V251.301H51.2119V249.473H57.3818V246.52H52.7588V238.188H55.0088V240.666H61.9873V238.188H64.2197V246.52H59.6143V249.473H65.8545ZM55.0088 244.727H61.9873V242.459H55.0088V244.727Z" fill="#3F414E"/>
<path fill-rule="evenodd" clip-rule="evenodd" d="M68.6215 67.4042C70.6606 73.9328 74.8105 76.2197 78.3895 75.1007C81.2017 74.2212 84.8626 66.1121 84.7333 62.367C84.3468 51.1335 75.3571 29.733 70.4648 28.3115C66.5121 32.499 65.392 57.0606 68.6215 67.4042Z" fill="#FEDEA6"/>
<path d="M76.6331 75.6564C75.3198 75.6564 74.0129 75.221 72.8301 74.373C70.9242 73.0058 69.4022 70.6349 68.4281 67.5158C66.9189 62.6814 66.2328 54.2576 66.6399 45.5295C66.9599 38.6496 68.0991 30.453 70.3354 28.0822L70.4122 28L70.5069 28.028C75.5118 29.4827 84.5501 50.9741 84.9418 62.351C85.0775 66.2884 81.3385 74.4692 78.4354 75.3784C77.8427 75.5655 77.2373 75.6564 76.6331 75.6564ZM70.5171 28.6207C68.7763 30.6086 67.4553 37.0707 67.0597 45.5663C66.6578 54.2104 67.3298 62.5346 68.8147 67.2902C70.5402 72.8152 73.762 75.0742 76.6728 75.0742C77.2463 75.0742 77.8069 74.9867 78.3432 74.8189C81.0377 73.9762 84.6512 66.0489 84.5245 62.3772C84.3479 57.2281 82.2717 49.3446 79.1074 41.8002C76.0046 34.4027 72.7265 29.3795 70.5171 28.6207Z" fill="#F5C371"/>
<path d="M70.6005 28.2155L70.1914 28.3447L78.1186 75.1351L78.5277 75.0059L70.6005 28.2155Z" fill="#F9CF88"/>
<path d="M73.5819 46.2662L73.2427 45.927C73.2683 45.8798 75.8053 41.1416 77.5116 38.0137L77.8482 38.3564C76.1432 41.4825 73.6075 46.2189 73.5819 46.2662Z" fill="#F9CF88"/>
<path d="M78.6503 40.4804L73.6836 48.4502L74.0033 48.8219L78.97 40.8521L78.6503 40.4804Z" fill="#F9CF88"/>
<path d="M66.7836 51.8182L66.5781 52.3184L75.4785 59.1406L75.684 58.6405L66.7836 51.8182Z" fill="#F9CF88"/>
<path d="M83.8761 56.8876L76.7925 66.7441L77.0921 67.1459L84.1757 57.2893L83.8761 56.8876Z" fill="#F9CF88"/>
<path d="M67.2229 59.6993L67.0757 60.2363L76.5063 65.0601L76.6535 64.5231L67.2229 59.6993Z" fill="#F9CF88"/>
<path d="M72.4669 41.5532C71.7373 40.644 69.8147 38.2347 67.7295 35.481L68.0213 35.0684C70.1027 37.8151 72.0227 40.2209 72.7511 41.1283L72.4669 41.5532Z" fill="#F9CF88"/>
<path fill-rule="evenodd" clip-rule="evenodd" d="M69.1092 61.2069C68.3399 60.1421 67.5027 59.0738 66.6131 58.0143C58.3569 48.1813 45.6219 39.1262 40.9331 41.1684C38.4716 49.281 48.5135 77.8675 56.9386 86.6078C62.2572 92.124 67.9559 91.068 71.4299 86.7074C72.0123 85.9766 72.532 85.1514 72.9774 84.2509C75.1881 79.775 75.5554 73.3881 72.5781 66.9766C71.7179 65.1198 70.5287 63.1704 69.1092 61.2069Z" fill="#FEDEA6"/>
<path d="M64.5115 90.6566C61.8824 90.6566 59.2289 89.3418 56.8121 86.8363C52.894 82.7712 48.2385 73.9365 44.6646 63.7765C41.8562 55.795 39.3499 45.6368 40.7388 41.0577L40.7759 40.9353L40.8693 40.8951C43.1209 39.9142 47.2618 41.3305 52.5279 44.8815C57.4739 48.2174 62.6581 52.9259 66.7503 57.7987C67.654 58.8757 68.4976 59.9545 69.2579 61.0053C70.7376 63.0509 71.914 65.0074 72.7562 66.8205C75.5121 72.7564 75.6594 79.3304 73.1518 84.4095C72.6999 85.3257 72.1674 86.1701 71.5722 86.9167C69.7494 89.2036 67.375 90.5289 64.8828 90.6478C64.7599 90.6531 64.6357 90.6566 64.5115 90.6566ZM41.0908 41.4021C40.0424 45.1507 41.549 53.599 45.0422 63.5282C48.5892 73.6096 53.1973 82.3656 57.0656 86.3782C62.4801 91.9941 68.1097 90.4835 71.288 86.4953C71.8602 85.7768 72.3697 84.9672 72.8036 84.0895C75.2152 79.2062 75.0641 72.8665 72.4017 67.1282C71.576 65.3501 70.4176 63.4251 68.9597 61.4092C68.207 60.3689 67.3711 59.2988 66.4751 58.2323C58.5991 48.8504 45.8602 39.5209 41.0908 41.4021Z" fill="#F5C371"/>
<path d="M41.0884 40.9742L40.7786 41.3613L71.2777 86.9024L71.5875 86.5153L41.0884 40.9742Z" fill="#F5C371"/>
<path d="M43.3127 59.2041L43.2974 58.6306C46.9634 58.44 52.4842 58.2215 52.5392 58.2197L52.5507 58.7932C52.4957 58.7967 46.9775 59.0153 43.3127 59.2041Z" fill="#F5C371"/>
<path d="M54.1801 60.6971L44.385 62.0771L44.4281 62.6476L54.2232 61.2676L54.1801 60.6971Z" fill="#F5C371"/>
<path d="M61.8737 53.0958L60.6802 70.9365L61.0983 70.9887L62.2918 53.148L61.8737 53.0958Z" fill="#F5C371"/>
<path d="M66.0993 78.5217L53.2993 81.5889L53.3719 82.1537L66.1718 79.0866L66.0993 78.5217Z" fill="#F5C371"/>
<path d="M67.6549 59.4777L64.5283 76.6309L64.9357 76.7694L68.0623 59.6162L67.6549 59.4777Z" fill="#F5C371"/>
<path d="M49.2392 53.9212C49.0664 52.2042 48.5979 47.6689 47.9861 42.6667L48.4008 42.5723C49.0139 47.5815 49.4837 52.1238 49.6565 53.8443L49.2392 53.9212Z" fill="#F5C371"/>
<path fill-rule="evenodd" clip-rule="evenodd" d="M136.554 154.266C131.457 152.878 127.734 156.268 126.39 160.935C125.334 164.601 128.168 173.306 130.504 175.275C137.509 181.181 155.517 183.127 159.138 178.412C158.838 171.593 144.629 156.464 136.554 154.266Z" fill="#FEDEA6"/>
<path d="M150.005 181.338C143.236 181.338 134.746 179.19 130.394 175.52C127.938 173.45 125.104 164.615 126.195 160.83C126.904 158.368 128.244 156.324 129.967 155.077C131.869 153.7 134.161 153.324 136.597 153.986C140.37 155.013 145.847 158.997 150.892 164.382C154.869 168.627 159.179 174.539 159.349 178.399L159.356 178.532L159.285 178.625C157.85 180.485 154.269 181.338 150.005 181.338ZM134.321 154.242C130.349 154.242 127.625 157.427 126.584 161.039C125.573 164.554 128.322 173.102 130.612 175.032C133.824 177.738 139.76 179.849 146.106 180.541C152.329 181.22 157.215 180.359 158.92 178.296C158.701 175.21 155.542 170.073 150.632 164.832C145.636 159.499 140.225 155.558 136.513 154.548C135.747 154.338 135.014 154.242 134.321 154.242Z" fill="#F5C371"/>
<path d="M126.527 160.614L126.375 161.148L159.122 178.63L159.275 178.095L126.527 160.614Z" fill="#F5C371"/>
<path d="M148.899 181.066C147.973 177.379 146.542 171.847 146.528 171.791L146.924 171.601C146.938 171.657 148.369 177.19 149.296 180.881L148.899 181.066Z" fill="#F5C371"/>
<path d="M145.147 170.666L144.742 170.816L146.754 180.915L147.159 180.764L145.147 170.666Z" fill="#F5C371"/>
<path d="M146.824 160.484L137.676 166.666L137.862 167.18L147.01 160.998L146.824 160.484Z" fill="#F5C371"/>
<path d="M132.342 163.85L131.93 163.961L133.887 177.512L134.299 177.401L132.342 163.85Z" fill="#F5C371"/>
<path d="M141.762 156.562L133.523 164.473L133.765 164.942L142.003 157.031L141.762 156.562Z" fill="#F5C371"/>
<path d="M150.101 173.751L150.005 173.193C150.969 172.882 153.516 172.074 156.349 171.278L156.434 171.84C153.607 172.633 151.064 173.441 150.101 173.751Z" fill="#F5C371"/>
<path fill-rule="evenodd" clip-rule="evenodd" d="M135.66 145.82C131.273 149.626 130.296 155.59 131.684 160.234C132.776 163.881 139.228 167.502 141.912 166.72C149.965 164.379 163.967 148.792 164.201 141.966C160.535 137.317 142.609 139.79 135.66 145.82Z" fill="#FEDEA6"/>
<path d="M141.06 167.115C137.945 167.115 132.511 163.75 131.491 160.342C130.759 157.893 130.693 155.151 131.308 152.623C131.986 149.832 133.452 147.397 135.549 145.578C138.796 142.76 144.771 140.471 151.142 139.604C156.165 138.921 162.271 139.127 164.346 141.756L164.417 141.847L164.412 141.98C164.171 148.962 150.112 164.629 141.956 167C141.688 167.079 141.387 167.115 141.06 167.115ZM155.952 139.83C154.487 139.83 152.884 139.943 151.183 140.174C144.874 141.033 138.969 143.29 135.774 146.063C131.331 149.918 130.617 155.905 131.88 160.125C132.926 163.62 139.238 167.205 141.869 166.439C145.56 165.365 150.919 161.29 155.858 155.801C160.7 150.42 163.798 145.187 163.987 142.087C162.738 140.618 159.826 139.83 155.952 139.83Z" fill="#F5C371"/>
<path d="M164.129 141.6L131.613 159.869L131.773 160.399L164.289 142.131L164.129 141.6Z" fill="#F5C371"/>
<path d="M158.141 153.546C155.607 151.754 151.774 149.105 151.736 149.077L151.925 148.564C151.964 148.591 155.797 151.241 158.333 153.035L158.141 153.546Z" fill="#F5C371"/>
<path d="M150.172 149.575L149.956 150.066L156.518 155.47L156.734 154.979L150.172 149.575Z" fill="#F5C371"/>
<path d="M146.222 140.614L142.735 153.715L143.129 153.911L146.617 140.81L146.222 140.614Z" fill="#F5C371"/>
<path d="M137.458 156.724L137.216 157.193L145.485 165.144L145.727 164.675L137.458 156.724Z" fill="#F5C371"/>
<path d="M140.585 142.577L138.628 156.069L139.04 156.181L140.996 142.689L140.585 142.577Z" fill="#F5C371"/>
<path d="M155.31 147.122L154.958 146.809C155.496 145.676 156.929 142.688 158.576 139.438L158.922 139.764C157.278 143.009 155.848 145.991 155.31 147.122Z" fill="#F5C371"/>
<path fill-rule="evenodd" clip-rule="evenodd" d="M83.8432 84.1714C47.7477 66.2645 29.6612 77.3234 25.4555 113.734C21.2499 150.145 46.5909 185.171 83.8434 192.303C113.683 198.015 144.002 172.329 149.016 111.721C154.029 51.1124 119.939 102.078 83.8432 84.1714Z" fill="#F5C371"/>
</svg>
