<svg width="414" height="119" viewBox="0 0 414 119" fill="none" xmlns="http://www.w3.org/2000/svg">
<path d="M98.4447 118.946C58.9561 117.406 49.0663 74.8318 9.57841 73.2746C5.84107 73.1272 0 73.2746 0 73.2746V0H414C414 0 386.522 43.327 358.658 59.7238C307.881 89.6039 262.684 43.3626 205.404 59.7238C159.047 72.9649 146.839 120.832 98.4447 118.946Z" fill="#4A62DD" fill-opacity="0.85"/>
<path d="M61.5874 88.9594C36.8831 87.8081 30.6961 55.9666 5.99229 54.802C3.6542 54.6918 0 54.802 0 54.802V0H259C259 0 241.81 32.4042 224.378 44.6674C192.612 67.0147 164.336 32.4308 128.501 44.6674C99.5003 54.5704 91.8633 90.3705 61.5874 88.9594Z" fill="#7E88FF" fill-opacity="0.9"/>
<path d="M35.3817 49.9772C20.7881 49.3304 17.1332 31.4419 2.53985 30.7876C1.15866 30.7257 -1 30.7876 -1 30.7876V0H152C152 0 141.845 18.2046 131.548 25.094C112.782 37.6487 96.0789 18.2196 74.91 25.094C57.7782 30.6575 53.2668 50.7699 35.3817 49.9772Z" fill="#AAC2FE" fill-opacity="0.91"/>
</svg>
