<svg width="126" height="118" viewBox="0 0 126 118" fill="none" xmlns="http://www.w3.org/2000/svg">
<path d="M1.6854 131.921C5.16739 154.771 18.9127 184.882 35.1246 176.247C47.3787 169.72 31.8521 150.08 45.73 135.097C59.608 120.113 81.0785 120.229 94.4978 138.693C104.38 152.29 93.7955 168.691 102.205 183.734C121.534 218.312 184.786 199.149 180.362 158.42C177.429 131.422 151.452 131.868 139.375 108.361C124.702 79.7996 139.564 49.4078 119.709 26.2064C104.694 8.66044 88.2359 -7.34664 71.3768 3.57008C49.4816 17.7478 105.678 68.1221 85.3895 85.4629C75.9639 93.5191 67.5741 90.7627 55.7517 90.5342C41.2999 90.2549 31.8683 74.6421 18.8931 81.3879C3.16659 89.564 -1.67872 109.845 1.6854 131.921Z" fill="#7E88FF" fill-opacity="0.9"/>
</svg>
