<svg width="156" height="233" viewBox="0 0 156 233" fill="none" xmlns="http://www.w3.org/2000/svg">
<path d="M-215.905 188.77C-211.623 219.102 -186.759 257.86 -151.585 244.076C-124.997 233.657 -154.988 209.246 -123.872 187.215C-92.756 165.184 -47.7026 162.497 -21.9798 185.602C-3.03796 202.617 -27.4276 226.122 -11.7682 245.281C24.2261 289.32 159.536 255.116 155.644 200.813C153.064 164.818 98.4767 168.86 76.2401 138.781C49.2224 102.234 84.4451 59.3077 45.841 30.6704C16.6467 9.01356 -15.7797 -10.3783 -52.6148 6.56674C-100.453 28.5735 10.8361 89.0165 -34.0481 115.073C-54.9006 127.179 -72.1464 124.575 -96.9327 125.833C-127.231 127.371 -144.961 107.58 -173.091 118.39C-207.186 131.491 -220.043 159.465 -215.905 188.77Z" fill="#7E88FF" fill-opacity="0.9"/>
</svg>
