<svg width="323" height="119" viewBox="0 0 323 119" fill="none" xmlns="http://www.w3.org/2000/svg">
<path d="M-38.2879 118.946C-83.4996 117.406 -94.8227 74.8318 -140.033 73.2746C-144.312 73.1272 -151 73.2746 -151 73.2746V0H323C323 0 291.54 43.327 259.638 59.7238C201.502 89.6039 149.754 43.3626 84.1722 59.7238C31.0971 72.9649 17.1205 120.832 -38.2879 118.946Z" fill="#4A62DD" fill-opacity="0.85"/>
<path d="M76.8059 49.9772C45.9971 49.3304 38.2812 31.4419 7.47301 30.7876C4.55716 30.7257 0 30.7876 0 30.7876V0H323C323 0 301.562 18.2046 279.823 25.094C240.207 37.6487 204.944 18.2196 160.255 25.094C124.087 30.6575 114.563 50.7699 76.8059 49.9772Z" fill="#AAC2FE" fill-opacity="0.91"/>
</svg>
