<svg width="38" height="225" viewBox="0 0 38 225" fill="none" xmlns="http://www.w3.org/2000/svg">
<path d="M2.07798 169.28C6.82664 199.533 22.3258 239.893 38.221 229.408C50.2358 221.482 33.5046 194.803 46.7013 175.838C59.8981 156.873 81.5733 158.186 96.1142 183.205C106.822 201.628 97.0261 222.636 106.326 242.883C127.702 289.423 190.503 267.626 183.837 213.798C179.419 178.118 153.226 177.302 139.768 145.72C123.416 107.348 136.773 68.1633 115.481 36.5637C99.3793 12.6666 81.9045 -9.28365 65.4793 4.16906C44.1477 21.6403 103.585 90.9556 84.0459 112.675C74.9684 122.766 66.3522 118.686 54.4081 117.747C39.8076 116.599 29.4454 95.5466 16.7147 103.721C1.28447 113.629 -2.50992 140.052 2.07798 169.28Z" fill="#7E88FF" fill-opacity="0.9"/>
</svg>
