<svg width="17" height="19" viewBox="0 0 17 19" fill="none" xmlns="http://www.w3.org/2000/svg">
<g clip-path="url(#clip0_4066_4952)">
<path d="M8.56846 9.21189C9.78977 9.21189 10.9611 8.72673 11.8247 7.86313C12.6883 6.99953 13.1734 5.82824 13.1734 4.60692C13.1734 3.38561 12.6883 2.21432 11.8247 1.35072C10.9611 0.487118 9.78977 0.00195313 8.56846 0.00195312C7.34715 0.00195313 6.17585 0.487118 5.31226 1.35072C4.44866 2.21432 3.96349 3.38561 3.96349 4.60692C3.96349 5.82824 4.44866 6.99953 5.31226 7.86313C6.17585 8.72673 7.34715 9.21189 8.56846 9.21189ZM6.92434 10.9388C3.38068 10.9388 0.509766 13.8097 0.509766 17.3533C0.509766 17.9433 0.988251 18.4218 1.57826 18.4218H15.5587C16.1487 18.4218 16.6272 17.9433 16.6272 17.3533C16.6272 13.8097 13.7562 10.9388 10.2126 10.9388H6.92434Z" fill="#2563EB"/>
</g>
<defs>
<clipPath id="clip0_4066_4952">
<path d="M0.509766 0.00195312H16.6272V18.4218H0.509766V0.00195312Z" fill="white"/>
</clipPath>
</defs>
</svg>
