<svg width="33" height="33" viewBox="0 0 33 33" fill="none" xmlns="http://www.w3.org/2000/svg">
<path fill-rule="evenodd" clip-rule="evenodd" d="M19.2388 6.04658C18.8428 5.88379 18.3408 5.88379 17.3368 5.88379C16.3328 5.88379 15.8308 5.88379 15.4348 6.04658C14.9068 6.26363 14.4873 6.67994 14.2686 7.20395C14.1687 7.44315 14.1297 7.72133 14.1144 8.12711C14.0919 8.72343 13.7838 9.27541 13.263 9.57377C12.7423 9.87213 12.1066 9.86099 11.575 9.58214C11.2133 9.39239 10.951 9.28688 10.6923 9.25308C10.1257 9.17905 9.55269 9.33143 9.09929 9.67671C8.75924 9.93567 8.50824 10.3671 8.00622 11.2301C7.50421 12.093 7.25321 12.5245 7.19726 12.9462C7.12266 13.5086 7.27621 14.0773 7.62411 14.5272C7.78291 14.7326 8.00608 14.9053 8.35245 15.1213C8.86165 15.4388 9.18929 15.9797 9.18925 16.5765C9.18922 17.1733 8.8616 17.7141 8.35245 18.0316C8.00602 18.2476 7.78282 18.4203 7.62401 18.6257C7.2761 19.0757 7.12256 19.6444 7.19715 20.2067C7.2531 20.6285 7.50411 21.0599 8.00612 21.9229C8.50813 22.7858 8.75914 23.2173 9.09918 23.4762C9.55258 23.8215 10.1256 23.9739 10.6922 23.8999C10.9509 23.8661 11.2131 23.7606 11.5748 23.5708C12.1065 23.292 12.7422 23.2808 13.263 23.5792C13.7838 23.8776 14.0919 24.4296 14.1144 25.026C14.1297 25.4317 14.1687 25.7099 14.2686 25.9491C14.4873 26.4731 14.9068 26.8894 15.4348 27.1064C15.8308 27.2692 16.3328 27.2692 17.3368 27.2692C18.3408 27.2692 18.8428 27.2692 19.2388 27.1064C19.7668 26.8894 20.1863 26.4731 20.405 25.9491C20.5048 25.7099 20.5439 25.4317 20.5592 25.0259C20.5817 24.4296 20.8898 23.8776 21.4105 23.5792C21.9312 23.2808 22.567 23.2919 23.0987 23.5708C23.4604 23.7605 23.7226 23.866 23.9813 23.8998C24.5479 23.9738 25.1209 23.8214 25.5743 23.4762C25.9143 23.2172 26.1653 22.7857 26.6674 21.9228C27.1694 21.0599 27.4204 20.6284 27.4763 20.2066C27.5509 19.6443 27.3974 19.0756 27.0495 18.6256C26.8907 18.4202 26.6675 18.2476 26.3211 18.0316C25.8119 17.7141 25.4843 17.1732 25.4843 16.5764C25.4844 15.9797 25.812 15.4389 26.3211 15.1214C26.6675 14.9054 26.8908 14.7327 27.0496 14.5273C27.3975 14.0773 27.551 13.5086 27.4764 12.9463C27.4205 12.5246 27.1695 12.0931 26.6675 11.2301C26.1655 10.3672 25.9144 9.93574 25.5744 9.67678C25.121 9.33151 24.548 9.17912 23.9814 9.25315C23.7227 9.28695 23.4605 9.39245 23.0987 9.58218C22.5671 9.86104 21.9313 9.87219 21.4106 9.5738C20.8898 9.27542 20.5817 8.72341 20.5592 8.12706C20.5439 7.72131 20.5048 7.44314 20.405 7.20395C20.1863 6.67994 19.7668 6.26363 19.2388 6.04658Z" fill="#85D062"/>
<path d="M20.569 16.577C20.569 18.3486 19.1218 19.7848 17.3367 19.7848C15.5516 19.7848 14.1045 18.3486 14.1045 16.577C14.1045 14.8053 15.5516 13.3691 17.3367 13.3691C19.1218 13.3691 20.569 14.8053 20.569 16.577Z" fill="white"/>
</svg>
