<svg width="33" height="33" viewBox="0 0 33 33" fill="none" xmlns="http://www.w3.org/2000/svg">
<path d="M27.4958 16.6556C27.4958 22.561 22.7085 27.3483 16.8031 27.3483C10.8976 27.3483 6.11035 22.561 6.11035 16.6556C6.11035 10.7502 10.8976 5.96289 16.8031 5.96289C22.7085 5.96289 27.4958 10.7502 27.4958 16.6556Z" fill="#FFC046"/>
<path d="M16.8029 12.1117C16.1386 12.1117 15.6 12.6503 15.6 13.3147C15.6 13.7576 15.241 14.1166 14.798 14.1166C14.3551 14.1166 13.9961 13.7576 13.9961 13.3147C13.9961 11.7645 15.2528 10.5078 16.8029 10.5078C18.3531 10.5078 19.6098 11.7645 19.6098 13.3147C19.6098 14.0747 19.3066 14.7656 18.8163 15.2703C18.7177 15.3718 18.6236 15.4658 18.5338 15.5555L18.5338 15.5556C18.303 15.7862 18.1008 15.9882 17.9234 16.2161C17.6892 16.517 17.6049 16.7382 17.6049 16.9234V17.7254C17.6049 18.1683 17.2458 18.5273 16.8029 18.5273C16.36 18.5273 16.001 18.1683 16.001 17.7254V16.9234C16.001 16.2229 16.3271 15.6558 16.6577 15.231C16.9023 14.9167 17.2097 14.6099 17.4592 14.3609L17.4592 14.3609L17.4593 14.3608C17.5345 14.2858 17.6045 14.2159 17.6659 14.1527C17.8771 13.9353 18.0059 13.6408 18.0059 13.3147C18.0059 12.6503 17.4673 12.1117 16.8029 12.1117Z" fill="white"/>
<path d="M16.8029 22.0025C17.3935 22.0025 17.8722 21.5238 17.8722 20.9332C17.8722 20.3427 17.3935 19.8639 16.8029 19.8639C16.2124 19.8639 15.7337 20.3427 15.7337 20.9332C15.7337 21.5238 16.2124 22.0025 16.8029 22.0025Z" fill="white"/>
</svg>
